<mxfile host="Electron" modified="2024-05-07T21:12:03.241Z" agent="Mozilla/5.0 (Windows NT 10.0; Win64; x64) AppleWebKit/537.36 (KHTML, like Gecko) draw.io/24.2.5 Chrome/120.0.6099.109 Electron/28.1.0 Safari/537.36" etag="ej2AK4oNIfJ4pMrYVZ0T" version="24.2.5" type="device">
  <diagram id="R2lEEEUBdFMjLlhIrx00" name="Page-1">
    <mxGraphModel dx="4090" dy="1407" grid="1" gridSize="10" guides="1" tooltips="1" connect="1" arrows="1" fold="1" page="1" pageScale="1" pageWidth="850" pageHeight="1100" math="0" shadow="0" extFonts="Permanent Marker^https://fonts.googleapis.com/css?family=Permanent+Marker">
      <root>
        <mxCell id="0" />
        <mxCell id="1" parent="0" />
        <mxCell id="HZR0XLKzO5xrUFBaR0wA-102" value="1" style="edgeStyle=orthogonalEdgeStyle;rounded=0;orthogonalLoop=1;jettySize=auto;html=1;exitX=1;exitY=0.5;exitDx=0;exitDy=0;entryX=0;entryY=0.5;entryDx=0;entryDy=0;endArrow=none;endFill=0;fontSize=14;" edge="1" parent="1" source="HZR0XLKzO5xrUFBaR0wA-77" target="HZR0XLKzO5xrUFBaR0wA-106">
          <mxGeometry relative="1" as="geometry" />
        </mxCell>
        <mxCell id="HZR0XLKzO5xrUFBaR0wA-77" value="&lt;b&gt;Главная команда&lt;/b&gt;" style="rounded=0;whiteSpace=wrap;html=1;" vertex="1" parent="1">
          <mxGeometry x="-1335.44" y="682.5" width="120" height="60" as="geometry" />
        </mxCell>
        <mxCell id="HZR0XLKzO5xrUFBaR0wA-103" value="1" style="rounded=0;orthogonalLoop=1;jettySize=auto;html=1;exitX=1;exitY=0.25;exitDx=0;exitDy=0;entryX=0;entryY=0.5;entryDx=0;entryDy=0;endArrow=none;endFill=0;" edge="1" parent="1" source="HZR0XLKzO5xrUFBaR0wA-95" target="HZR0XLKzO5xrUFBaR0wA-128">
          <mxGeometry relative="1" as="geometry" />
        </mxCell>
        <mxCell id="HZR0XLKzO5xrUFBaR0wA-104" value="1" style="rounded=0;orthogonalLoop=1;jettySize=auto;html=1;exitX=1;exitY=0;exitDx=0;exitDy=0;entryX=0;entryY=0.5;entryDx=0;entryDy=0;endArrow=none;endFill=0;fontSize=14;" edge="1" parent="1" source="HZR0XLKzO5xrUFBaR0wA-95" target="HZR0XLKzO5xrUFBaR0wA-118">
          <mxGeometry relative="1" as="geometry" />
        </mxCell>
        <mxCell id="HZR0XLKzO5xrUFBaR0wA-105" value="1" style="rounded=0;orthogonalLoop=1;jettySize=auto;html=1;exitX=1;exitY=1;exitDx=0;exitDy=0;entryX=0;entryY=0.5;entryDx=0;entryDy=0;endArrow=none;endFill=0;fontSize=14;" edge="1" parent="1" source="HZR0XLKzO5xrUFBaR0wA-95" target="HZR0XLKzO5xrUFBaR0wA-131">
          <mxGeometry relative="1" as="geometry" />
        </mxCell>
        <mxCell id="HZR0XLKzO5xrUFBaR0wA-95" value="&lt;b&gt;Главный сервер&lt;/b&gt;" style="rounded=0;whiteSpace=wrap;html=1;" vertex="1" parent="1">
          <mxGeometry x="-955.44" y="682.5" width="120" height="60" as="geometry" />
        </mxCell>
        <mxCell id="HZR0XLKzO5xrUFBaR0wA-96" value="&lt;b&gt;Программа моделирования&lt;/b&gt;" style="rounded=0;whiteSpace=wrap;html=1;" vertex="1" parent="1">
          <mxGeometry x="-560.44" y="422.5" width="120" height="60" as="geometry" />
        </mxCell>
        <mxCell id="HZR0XLKzO5xrUFBaR0wA-97" value="&lt;b style=&quot;background-color: initial;&quot;&gt;Система организации материалов&lt;/b&gt;" style="rounded=0;whiteSpace=wrap;html=1;" vertex="1" parent="1">
          <mxGeometry x="-495.44" y="832.5" width="120" height="60" as="geometry" />
        </mxCell>
        <mxCell id="HZR0XLKzO5xrUFBaR0wA-129" value="N" style="rounded=0;orthogonalLoop=1;jettySize=auto;html=1;endArrow=none;endFill=0;fontSize=14;" edge="1" parent="1" source="HZR0XLKzO5xrUFBaR0wA-98" target="HZR0XLKzO5xrUFBaR0wA-128">
          <mxGeometry relative="1" as="geometry" />
        </mxCell>
        <mxCell id="HZR0XLKzO5xrUFBaR0wA-98" value="&lt;b&gt;Органайзер бригад&lt;/b&gt;" style="rounded=0;whiteSpace=wrap;html=1;" vertex="1" parent="1">
          <mxGeometry x="-575.44" y="619.5" width="120" height="60" as="geometry" />
        </mxCell>
        <mxCell id="HZR0XLKzO5xrUFBaR0wA-171" value="N" style="edgeStyle=orthogonalEdgeStyle;rounded=0;orthogonalLoop=1;jettySize=auto;html=1;exitX=0.5;exitY=0;exitDx=0;exitDy=0;entryX=0.5;entryY=1;entryDx=0;entryDy=0;endArrow=none;endFill=0;fontSize=14;" edge="1" parent="1" source="HZR0XLKzO5xrUFBaR0wA-100" target="HZR0XLKzO5xrUFBaR0wA-168">
          <mxGeometry relative="1" as="geometry" />
        </mxCell>
        <mxCell id="HZR0XLKzO5xrUFBaR0wA-100" value="&lt;b&gt;Генератор отчетов&lt;/b&gt;&lt;br&gt;&lt;div&gt;&lt;b&gt;&lt;br&gt;&lt;/b&gt;&lt;/div&gt;" style="rounded=0;whiteSpace=wrap;html=1;" vertex="1" parent="1">
          <mxGeometry x="-955.44" y="412.5" width="120" height="50" as="geometry" />
        </mxCell>
        <mxCell id="HZR0XLKzO5xrUFBaR0wA-101" value="&lt;div&gt;&lt;b&gt;Гос. комиссия&lt;/b&gt;&lt;b&gt;&lt;br&gt;&lt;/b&gt;&lt;/div&gt;" style="rounded=0;whiteSpace=wrap;html=1;" vertex="1" parent="1">
          <mxGeometry x="-955.44" y="132.5" width="120" height="50" as="geometry" />
        </mxCell>
        <mxCell id="HZR0XLKzO5xrUFBaR0wA-107" value="1" style="edgeStyle=orthogonalEdgeStyle;rounded=0;orthogonalLoop=1;jettySize=auto;html=1;exitX=1;exitY=0.5;exitDx=0;exitDy=0;entryX=0;entryY=0.5;entryDx=0;entryDy=0;endArrow=none;endFill=0;fontSize=14;" edge="1" parent="1" source="HZR0XLKzO5xrUFBaR0wA-106" target="HZR0XLKzO5xrUFBaR0wA-95">
          <mxGeometry relative="1" as="geometry" />
        </mxCell>
        <mxCell id="HZR0XLKzO5xrUFBaR0wA-106" value="Передача задач" style="rhombus;whiteSpace=wrap;html=1;" vertex="1" parent="1">
          <mxGeometry x="-1154.44" y="687.5" width="140" height="50" as="geometry" />
        </mxCell>
        <mxCell id="HZR0XLKzO5xrUFBaR0wA-113" style="rounded=0;orthogonalLoop=1;jettySize=auto;html=1;exitX=0.5;exitY=0;exitDx=0;exitDy=0;entryX=0.5;entryY=1;entryDx=0;entryDy=0;endArrow=none;endFill=0;" edge="1" parent="1" source="HZR0XLKzO5xrUFBaR0wA-108" target="HZR0XLKzO5xrUFBaR0wA-95">
          <mxGeometry relative="1" as="geometry" />
        </mxCell>
        <mxCell id="HZR0XLKzO5xrUFBaR0wA-108" value="&lt;u&gt;Запросы на обработку&lt;/u&gt;" style="ellipse;whiteSpace=wrap;html=1;" vertex="1" parent="1">
          <mxGeometry x="-1135.44" y="832.5" width="90" height="40" as="geometry" />
        </mxCell>
        <mxCell id="HZR0XLKzO5xrUFBaR0wA-114" style="rounded=0;orthogonalLoop=1;jettySize=auto;html=1;exitX=0.5;exitY=0;exitDx=0;exitDy=0;entryX=0.5;entryY=1;entryDx=0;entryDy=0;endArrow=none;endFill=0;" edge="1" parent="1" source="HZR0XLKzO5xrUFBaR0wA-109" target="HZR0XLKzO5xrUFBaR0wA-95">
          <mxGeometry relative="1" as="geometry" />
        </mxCell>
        <mxCell id="HZR0XLKzO5xrUFBaR0wA-109" value="Архив документов" style="ellipse;whiteSpace=wrap;html=1;" vertex="1" parent="1">
          <mxGeometry x="-1037.77" y="832.5" width="90" height="40" as="geometry" />
        </mxCell>
        <mxCell id="HZR0XLKzO5xrUFBaR0wA-111" value="&lt;span style=&quot;text-align: left;&quot;&gt;Отчет по запросам&lt;/span&gt;" style="ellipse;whiteSpace=wrap;html=1;" vertex="1" parent="1">
          <mxGeometry x="-939.44" y="832.5" width="90" height="40" as="geometry" />
        </mxCell>
        <mxCell id="HZR0XLKzO5xrUFBaR0wA-116" style="rounded=0;orthogonalLoop=1;jettySize=auto;html=1;exitX=0.5;exitY=0;exitDx=0;exitDy=0;entryX=0.5;entryY=1;entryDx=0;entryDy=0;endArrow=none;endFill=0;" edge="1" parent="1" source="HZR0XLKzO5xrUFBaR0wA-112" target="HZR0XLKzO5xrUFBaR0wA-95">
          <mxGeometry relative="1" as="geometry" />
        </mxCell>
        <mxCell id="HZR0XLKzO5xrUFBaR0wA-112" value="&lt;u&gt;&lt;span style=&quot;text-align: left;&quot;&gt;Список состояний по запросам&lt;/span&gt;&lt;br&gt;&lt;/u&gt;&lt;div&gt;&lt;span style=&quot;text-align: left;&quot;&gt;&lt;br&gt;&lt;/span&gt;&lt;/div&gt;" style="ellipse;whiteSpace=wrap;html=1;verticalAlign=middle;spacingTop=18;" vertex="1" parent="1">
          <mxGeometry x="-843.77" y="832.5" width="130" height="40" as="geometry" />
        </mxCell>
        <mxCell id="HZR0XLKzO5xrUFBaR0wA-115" style="rounded=0;orthogonalLoop=1;jettySize=auto;html=1;exitX=0.5;exitY=0;exitDx=0;exitDy=0;entryX=0.5;entryY=1;entryDx=0;entryDy=0;endArrow=none;endFill=0;" edge="1" parent="1" source="HZR0XLKzO5xrUFBaR0wA-111" target="HZR0XLKzO5xrUFBaR0wA-95">
          <mxGeometry relative="1" as="geometry" />
        </mxCell>
        <mxCell id="HZR0XLKzO5xrUFBaR0wA-119" value="N" style="edgeStyle=orthogonalEdgeStyle;rounded=0;orthogonalLoop=1;jettySize=auto;html=1;exitX=1;exitY=0.5;exitDx=0;exitDy=0;entryX=0;entryY=0.5;entryDx=0;entryDy=0;endArrow=none;endFill=0;fontSize=14;" edge="1" parent="1" source="HZR0XLKzO5xrUFBaR0wA-118" target="HZR0XLKzO5xrUFBaR0wA-96">
          <mxGeometry relative="1" as="geometry" />
        </mxCell>
        <mxCell id="HZR0XLKzO5xrUFBaR0wA-118" value="Выполнение&amp;nbsp;&lt;div&gt;инженерных&amp;nbsp;&lt;div&gt;задач&lt;/div&gt;&lt;/div&gt;" style="rhombus;whiteSpace=wrap;html=1;spacingTop=10;" vertex="1" parent="1">
          <mxGeometry x="-775.44" y="419.5" width="170" height="66" as="geometry" />
        </mxCell>
        <mxCell id="HZR0XLKzO5xrUFBaR0wA-128" value="Выполнение&amp;nbsp;&lt;div&gt;организационных&lt;div&gt;задач&lt;/div&gt;&lt;/div&gt;" style="rhombus;whiteSpace=wrap;html=1;spacingTop=10;" vertex="1" parent="1">
          <mxGeometry x="-795.44" y="612.5" width="172.66" height="70" as="geometry" />
        </mxCell>
        <mxCell id="HZR0XLKzO5xrUFBaR0wA-132" value="N" style="rounded=0;orthogonalLoop=1;jettySize=auto;html=1;exitX=1;exitY=0.5;exitDx=0;exitDy=0;entryX=0;entryY=0.5;entryDx=0;entryDy=0;endArrow=none;endFill=0;fontSize=14;" edge="1" parent="1" source="HZR0XLKzO5xrUFBaR0wA-131" target="HZR0XLKzO5xrUFBaR0wA-97">
          <mxGeometry relative="1" as="geometry" />
        </mxCell>
        <mxCell id="HZR0XLKzO5xrUFBaR0wA-195" style="edgeStyle=orthogonalEdgeStyle;rounded=0;orthogonalLoop=1;jettySize=auto;html=1;exitX=0.5;exitY=1;exitDx=0;exitDy=0;entryX=0.5;entryY=0;entryDx=0;entryDy=0;endArrow=none;endFill=0;" edge="1" parent="1" source="HZR0XLKzO5xrUFBaR0wA-131" target="HZR0XLKzO5xrUFBaR0wA-194">
          <mxGeometry relative="1" as="geometry" />
        </mxCell>
        <mxCell id="HZR0XLKzO5xrUFBaR0wA-131" value="Выполнение&amp;nbsp;&lt;div&gt;логистеческих&lt;br&gt;&lt;div&gt;задач&lt;/div&gt;&lt;/div&gt;" style="rhombus;whiteSpace=wrap;html=1;spacingTop=10;" vertex="1" parent="1">
          <mxGeometry x="-713.77" y="762.5" width="172.66" height="70" as="geometry" />
        </mxCell>
        <mxCell id="HZR0XLKzO5xrUFBaR0wA-145" value="&lt;span style=&quot;text-align: left;&quot;&gt;&lt;u&gt;Список на закупку&lt;/u&gt;&lt;/span&gt;" style="ellipse;whiteSpace=wrap;html=1;" vertex="1" parent="1">
          <mxGeometry x="-313.59999999999997" y="792.5" width="94.33" height="40" as="geometry" />
        </mxCell>
        <mxCell id="HZR0XLKzO5xrUFBaR0wA-146" style="rounded=0;orthogonalLoop=1;jettySize=auto;html=1;exitX=0;exitY=0.5;exitDx=0;exitDy=0;entryX=1;entryY=0.5;entryDx=0;entryDy=0;endArrow=none;endFill=0;" edge="1" parent="1" source="HZR0XLKzO5xrUFBaR0wA-147" target="HZR0XLKzO5xrUFBaR0wA-97">
          <mxGeometry relative="1" as="geometry">
            <mxPoint x="-206.44" y="885.5" as="targetPoint" />
          </mxGeometry>
        </mxCell>
        <mxCell id="HZR0XLKzO5xrUFBaR0wA-147" value="&lt;div&gt;&lt;span style=&quot;text-align: left;&quot;&gt;Состояния по закупкам&lt;/span&gt;&lt;span style=&quot;text-align: left;&quot;&gt;&lt;br&gt;&lt;/span&gt;&lt;/div&gt;" style="ellipse;whiteSpace=wrap;html=1;verticalAlign=middle;spacingTop=0;" vertex="1" parent="1">
          <mxGeometry x="-331.43" y="842.5" width="130" height="40" as="geometry" />
        </mxCell>
        <mxCell id="HZR0XLKzO5xrUFBaR0wA-148" style="rounded=0;orthogonalLoop=1;jettySize=auto;html=1;exitX=0;exitY=1;exitDx=0;exitDy=0;entryX=1;entryY=0.5;entryDx=0;entryDy=0;endArrow=none;endFill=0;" edge="1" parent="1" source="HZR0XLKzO5xrUFBaR0wA-145" target="HZR0XLKzO5xrUFBaR0wA-97">
          <mxGeometry relative="1" as="geometry">
            <mxPoint x="-206.44" y="885.5" as="targetPoint" />
          </mxGeometry>
        </mxCell>
        <mxCell id="HZR0XLKzO5xrUFBaR0wA-151" style="rounded=0;orthogonalLoop=1;jettySize=auto;html=1;exitX=0;exitY=0.5;exitDx=0;exitDy=0;entryX=1;entryY=0.5;entryDx=0;entryDy=0;endArrow=none;endFill=0;" edge="1" parent="1" source="HZR0XLKzO5xrUFBaR0wA-152" target="HZR0XLKzO5xrUFBaR0wA-98">
          <mxGeometry relative="1" as="geometry">
            <mxPoint x="-435.44" y="647.5" as="targetPoint" />
          </mxGeometry>
        </mxCell>
        <mxCell id="HZR0XLKzO5xrUFBaR0wA-152" value="&lt;span style=&quot;text-align: left;&quot;&gt;Состав бригад&lt;/span&gt;" style="ellipse;whiteSpace=wrap;html=1;" vertex="1" parent="1">
          <mxGeometry x="-383.59999999999997" y="629.5" width="90" height="40" as="geometry" />
        </mxCell>
        <mxCell id="HZR0XLKzO5xrUFBaR0wA-153" value="&lt;span style=&quot;text-align: left;&quot;&gt;Список членов проекта&lt;/span&gt;" style="ellipse;whiteSpace=wrap;html=1;fontStyle=4" vertex="1" parent="1">
          <mxGeometry x="-385.7699999999999" y="582.5" width="94.33" height="40" as="geometry" />
        </mxCell>
        <mxCell id="HZR0XLKzO5xrUFBaR0wA-154" style="rounded=0;orthogonalLoop=1;jettySize=auto;html=1;exitX=0;exitY=0;exitDx=0;exitDy=0;endArrow=none;endFill=0;entryX=1;entryY=0.5;entryDx=0;entryDy=0;" edge="1" parent="1" source="HZR0XLKzO5xrUFBaR0wA-155" target="HZR0XLKzO5xrUFBaR0wA-98">
          <mxGeometry relative="1" as="geometry">
            <mxPoint x="-455.44" y="647.5" as="targetPoint" />
          </mxGeometry>
        </mxCell>
        <mxCell id="HZR0XLKzO5xrUFBaR0wA-155" value="&lt;div&gt;&lt;span style=&quot;text-align: left;&quot;&gt;Список требуемых специалистов&lt;/span&gt;&lt;span style=&quot;text-align: left;&quot;&gt;&lt;br&gt;&lt;/span&gt;&lt;/div&gt;" style="ellipse;whiteSpace=wrap;html=1;verticalAlign=middle;spacingTop=0;" vertex="1" parent="1">
          <mxGeometry x="-403.60999999999996" y="677.5" width="130" height="40" as="geometry" />
        </mxCell>
        <mxCell id="HZR0XLKzO5xrUFBaR0wA-156" style="rounded=0;orthogonalLoop=1;jettySize=auto;html=1;exitX=0;exitY=1;exitDx=0;exitDy=0;entryX=1;entryY=0.5;entryDx=0;entryDy=0;endArrow=none;endFill=0;" edge="1" parent="1" source="HZR0XLKzO5xrUFBaR0wA-153" target="HZR0XLKzO5xrUFBaR0wA-98">
          <mxGeometry relative="1" as="geometry">
            <mxPoint x="-435.44" y="647.5" as="targetPoint" />
          </mxGeometry>
        </mxCell>
        <mxCell id="HZR0XLKzO5xrUFBaR0wA-157" style="rounded=0;orthogonalLoop=1;jettySize=auto;html=1;exitX=0;exitY=0.5;exitDx=0;exitDy=0;endArrow=none;endFill=0;entryX=1;entryY=0.5;entryDx=0;entryDy=0;" edge="1" parent="1" source="HZR0XLKzO5xrUFBaR0wA-158" target="HZR0XLKzO5xrUFBaR0wA-96">
          <mxGeometry relative="1" as="geometry">
            <mxPoint x="-425.44" y="457.5" as="targetPoint" />
          </mxGeometry>
        </mxCell>
        <mxCell id="HZR0XLKzO5xrUFBaR0wA-158" value="&lt;span style=&quot;text-align: left;&quot;&gt;Результаты расчетов&lt;/span&gt;" style="ellipse;whiteSpace=wrap;html=1;" vertex="1" parent="1">
          <mxGeometry x="-359.2699999999999" y="482.5" width="90" height="40" as="geometry" />
        </mxCell>
        <mxCell id="HZR0XLKzO5xrUFBaR0wA-159" style="rounded=0;orthogonalLoop=1;jettySize=auto;html=1;exitX=0;exitY=0.5;exitDx=0;exitDy=0;entryX=1;entryY=0.5;entryDx=0;entryDy=0;endArrow=none;endFill=0;" edge="1" parent="1" source="HZR0XLKzO5xrUFBaR0wA-160" target="HZR0XLKzO5xrUFBaR0wA-96">
          <mxGeometry relative="1" as="geometry">
            <mxPoint x="-425.44" y="457.5" as="targetPoint" />
          </mxGeometry>
        </mxCell>
        <mxCell id="HZR0XLKzO5xrUFBaR0wA-160" value="&lt;span style=&quot;text-align: left;&quot;&gt;Список чертежей&lt;/span&gt;" style="ellipse;whiteSpace=wrap;html=1;" vertex="1" parent="1">
          <mxGeometry x="-359.2699999999999" y="382.5" width="90" height="40" as="geometry" />
        </mxCell>
        <mxCell id="HZR0XLKzO5xrUFBaR0wA-161" value="&lt;span style=&quot;text-align: left;&quot;&gt;Список корректировок&lt;/span&gt;" style="ellipse;whiteSpace=wrap;html=1;" vertex="1" parent="1">
          <mxGeometry x="-361.44" y="332.5" width="94.33" height="40" as="geometry" />
        </mxCell>
        <mxCell id="HZR0XLKzO5xrUFBaR0wA-162" style="rounded=0;orthogonalLoop=1;jettySize=auto;html=1;exitX=0;exitY=0.5;exitDx=0;exitDy=0;entryX=1;entryY=0.5;entryDx=0;entryDy=0;endArrow=none;endFill=0;" edge="1" parent="1" source="HZR0XLKzO5xrUFBaR0wA-163" target="HZR0XLKzO5xrUFBaR0wA-96">
          <mxGeometry relative="1" as="geometry">
            <mxPoint x="-425.44" y="457.5" as="targetPoint" />
          </mxGeometry>
        </mxCell>
        <mxCell id="HZR0XLKzO5xrUFBaR0wA-163" value="&lt;div&gt;&lt;span style=&quot;text-align: left;&quot;&gt;Инженерная документация&lt;/span&gt;&lt;span style=&quot;text-align: left;&quot;&gt;&lt;br&gt;&lt;/span&gt;&lt;/div&gt;" style="ellipse;whiteSpace=wrap;html=1;verticalAlign=middle;spacingTop=0;" vertex="1" parent="1">
          <mxGeometry x="-368.34999999999997" y="432.5" width="108.16" height="40" as="geometry" />
        </mxCell>
        <mxCell id="HZR0XLKzO5xrUFBaR0wA-164" style="rounded=0;orthogonalLoop=1;jettySize=auto;html=1;exitX=0;exitY=1;exitDx=0;exitDy=0;entryX=1;entryY=0.5;entryDx=0;entryDy=0;endArrow=none;endFill=0;" edge="1" parent="1" source="HZR0XLKzO5xrUFBaR0wA-161" target="HZR0XLKzO5xrUFBaR0wA-96">
          <mxGeometry relative="1" as="geometry">
            <mxPoint x="-425.44" y="457.5" as="targetPoint" />
          </mxGeometry>
        </mxCell>
        <mxCell id="HZR0XLKzO5xrUFBaR0wA-169" value="1" style="edgeStyle=orthogonalEdgeStyle;rounded=0;orthogonalLoop=1;jettySize=auto;html=1;exitX=0.5;exitY=1;exitDx=0;exitDy=0;entryX=0.5;entryY=0;entryDx=0;entryDy=0;endArrow=none;endFill=0;fontSize=14;" edge="1" parent="1" source="HZR0XLKzO5xrUFBaR0wA-167" target="HZR0XLKzO5xrUFBaR0wA-95">
          <mxGeometry relative="1" as="geometry" />
        </mxCell>
        <mxCell id="HZR0XLKzO5xrUFBaR0wA-170" value="N" style="edgeStyle=orthogonalEdgeStyle;rounded=0;orthogonalLoop=1;jettySize=auto;html=1;exitX=0.5;exitY=0;exitDx=0;exitDy=0;entryX=0.5;entryY=1;entryDx=0;entryDy=0;endArrow=none;endFill=0;fontSize=14;" edge="1" parent="1" source="HZR0XLKzO5xrUFBaR0wA-167" target="HZR0XLKzO5xrUFBaR0wA-100">
          <mxGeometry relative="1" as="geometry" />
        </mxCell>
        <mxCell id="HZR0XLKzO5xrUFBaR0wA-167" value="Выполнение&amp;nbsp;&lt;div&gt;отчетности&lt;/div&gt;" style="rhombus;whiteSpace=wrap;html=1;spacingTop=0;" vertex="1" parent="1">
          <mxGeometry x="-966.7700000000002" y="532.5" width="142.66" height="57.84" as="geometry" />
        </mxCell>
        <mxCell id="HZR0XLKzO5xrUFBaR0wA-172" value="N" style="edgeStyle=orthogonalEdgeStyle;rounded=0;orthogonalLoop=1;jettySize=auto;html=1;endArrow=none;endFill=0;fontSize=14;" edge="1" parent="1" source="HZR0XLKzO5xrUFBaR0wA-168" target="HZR0XLKzO5xrUFBaR0wA-101">
          <mxGeometry relative="1" as="geometry" />
        </mxCell>
        <mxCell id="HZR0XLKzO5xrUFBaR0wA-168" value="Порверка по ГОСТ" style="rhombus;whiteSpace=wrap;html=1;spacingTop=0;" vertex="1" parent="1">
          <mxGeometry x="-966.77" y="274.65999999999997" width="142.66" height="57.84" as="geometry" />
        </mxCell>
        <mxCell id="HZR0XLKzO5xrUFBaR0wA-177" style="edgeStyle=orthogonalEdgeStyle;rounded=0;orthogonalLoop=1;jettySize=auto;html=1;exitX=1;exitY=0.5;exitDx=0;exitDy=0;entryX=0;entryY=0.5;entryDx=0;entryDy=0;endArrow=none;endFill=0;" edge="1" parent="1" source="HZR0XLKzO5xrUFBaR0wA-174" target="HZR0XLKzO5xrUFBaR0wA-77">
          <mxGeometry relative="1" as="geometry" />
        </mxCell>
        <mxCell id="HZR0XLKzO5xrUFBaR0wA-174" value="&lt;span style=&quot;text-align: left;&quot;&gt;Задача на выполнение&lt;/span&gt;" style="ellipse;whiteSpace=wrap;html=1;fontStyle=4" vertex="1" parent="1">
          <mxGeometry x="-1479.9900000000002" y="692" width="90" height="40" as="geometry" />
        </mxCell>
        <mxCell id="HZR0XLKzO5xrUFBaR0wA-178" style="rounded=0;orthogonalLoop=1;jettySize=auto;html=1;exitX=1;exitY=0.5;exitDx=0;exitDy=0;entryX=0;entryY=0.5;entryDx=0;entryDy=0;endArrow=none;endFill=0;" edge="1" parent="1" source="HZR0XLKzO5xrUFBaR0wA-175" target="HZR0XLKzO5xrUFBaR0wA-77">
          <mxGeometry relative="1" as="geometry" />
        </mxCell>
        <mxCell id="HZR0XLKzO5xrUFBaR0wA-175" value="&lt;span style=&quot;text-align: left;&quot;&gt;Список членов проекта&lt;/span&gt;" style="ellipse;whiteSpace=wrap;html=1;fontStyle=4" vertex="1" parent="1">
          <mxGeometry x="-1482.16" y="645" width="94.33" height="40" as="geometry" />
        </mxCell>
        <mxCell id="HZR0XLKzO5xrUFBaR0wA-179" style="rounded=0;orthogonalLoop=1;jettySize=auto;html=1;exitX=1;exitY=0.5;exitDx=0;exitDy=0;entryX=0;entryY=0.5;entryDx=0;entryDy=0;endArrow=none;endFill=0;" edge="1" parent="1" source="HZR0XLKzO5xrUFBaR0wA-176" target="HZR0XLKzO5xrUFBaR0wA-77">
          <mxGeometry relative="1" as="geometry">
            <mxPoint x="-1345.44" y="742.5" as="targetPoint" />
          </mxGeometry>
        </mxCell>
        <mxCell id="HZR0XLKzO5xrUFBaR0wA-176" value="&lt;div&gt;&lt;span style=&quot;text-align: left;&quot;&gt;Результат проверки&lt;/span&gt;&lt;span style=&quot;text-align: left;&quot;&gt;&lt;br&gt;&lt;/span&gt;&lt;/div&gt;" style="ellipse;whiteSpace=wrap;html=1;verticalAlign=middle;spacingTop=0;" vertex="1" parent="1">
          <mxGeometry x="-1500" y="740" width="130" height="40" as="geometry" />
        </mxCell>
        <mxCell id="HZR0XLKzO5xrUFBaR0wA-180" style="edgeStyle=orthogonalEdgeStyle;rounded=0;orthogonalLoop=1;jettySize=auto;html=1;exitX=1;exitY=0.5;exitDx=0;exitDy=0;entryX=0;entryY=0.5;entryDx=0;entryDy=0;endArrow=none;endFill=0;" edge="1" parent="1" source="HZR0XLKzO5xrUFBaR0wA-181" target="HZR0XLKzO5xrUFBaR0wA-100">
          <mxGeometry relative="1" as="geometry">
            <mxPoint x="-966.77" y="437.5" as="targetPoint" />
          </mxGeometry>
        </mxCell>
        <mxCell id="HZR0XLKzO5xrUFBaR0wA-181" value="&lt;span style=&quot;text-align: left;&quot;&gt;Переданные документы&lt;/span&gt;" style="ellipse;whiteSpace=wrap;html=1;fontStyle=4" vertex="1" parent="1">
          <mxGeometry x="-1111.3200000000002" y="417" width="90" height="40" as="geometry" />
        </mxCell>
        <mxCell id="HZR0XLKzO5xrUFBaR0wA-182" style="rounded=0;orthogonalLoop=1;jettySize=auto;html=1;exitX=1;exitY=0.5;exitDx=0;exitDy=0;entryX=0;entryY=0.5;entryDx=0;entryDy=0;endArrow=none;endFill=0;" edge="1" parent="1" source="HZR0XLKzO5xrUFBaR0wA-183" target="HZR0XLKzO5xrUFBaR0wA-100">
          <mxGeometry relative="1" as="geometry">
            <mxPoint x="-966.77" y="437.5" as="targetPoint" />
          </mxGeometry>
        </mxCell>
        <mxCell id="HZR0XLKzO5xrUFBaR0wA-183" value="&lt;span style=&quot;text-align: left;&quot;&gt;Общий отчет&lt;/span&gt;" style="ellipse;whiteSpace=wrap;html=1;fontStyle=0" vertex="1" parent="1">
          <mxGeometry x="-1113.49" y="370" width="94.33" height="40" as="geometry" />
        </mxCell>
        <mxCell id="HZR0XLKzO5xrUFBaR0wA-184" style="rounded=0;orthogonalLoop=1;jettySize=auto;html=1;exitX=1;exitY=0.5;exitDx=0;exitDy=0;entryX=0;entryY=0.5;entryDx=0;entryDy=0;endArrow=none;endFill=0;" edge="1" parent="1" source="HZR0XLKzO5xrUFBaR0wA-185" target="HZR0XLKzO5xrUFBaR0wA-100">
          <mxGeometry relative="1" as="geometry">
            <mxPoint x="-966.77" y="437.5" as="targetPoint" />
          </mxGeometry>
        </mxCell>
        <mxCell id="HZR0XLKzO5xrUFBaR0wA-185" value="&lt;div&gt;&lt;span style=&quot;text-align: left;&quot;&gt;Состояние проверки&lt;/span&gt;&lt;span style=&quot;text-align: left;&quot;&gt;&lt;br&gt;&lt;/span&gt;&lt;/div&gt;" style="ellipse;whiteSpace=wrap;html=1;verticalAlign=middle;spacingTop=0;" vertex="1" parent="1">
          <mxGeometry x="-1131.33" y="465" width="130" height="40" as="geometry" />
        </mxCell>
        <mxCell id="HZR0XLKzO5xrUFBaR0wA-186" style="edgeStyle=orthogonalEdgeStyle;rounded=0;orthogonalLoop=1;jettySize=auto;html=1;exitX=1;exitY=0.5;exitDx=0;exitDy=0;entryX=0;entryY=0.5;entryDx=0;entryDy=0;endArrow=none;endFill=0;" edge="1" parent="1" source="HZR0XLKzO5xrUFBaR0wA-187" target="HZR0XLKzO5xrUFBaR0wA-101">
          <mxGeometry relative="1" as="geometry">
            <mxPoint x="-959.55" y="157.5" as="targetPoint" />
          </mxGeometry>
        </mxCell>
        <mxCell id="HZR0XLKzO5xrUFBaR0wA-187" value="&lt;span style=&quot;text-align: left;&quot;&gt;Полученные документы&lt;/span&gt;" style="ellipse;whiteSpace=wrap;html=1;fontStyle=4" vertex="1" parent="1">
          <mxGeometry x="-1111.3200000000002" y="137" width="90" height="40" as="geometry" />
        </mxCell>
        <mxCell id="HZR0XLKzO5xrUFBaR0wA-188" style="rounded=0;orthogonalLoop=1;jettySize=auto;html=1;exitX=1;exitY=0.5;exitDx=0;exitDy=0;entryX=0;entryY=0.5;entryDx=0;entryDy=0;endArrow=none;endFill=0;" edge="1" parent="1" source="HZR0XLKzO5xrUFBaR0wA-189" target="HZR0XLKzO5xrUFBaR0wA-101">
          <mxGeometry relative="1" as="geometry">
            <mxPoint x="-959.55" y="157.5" as="targetPoint" />
          </mxGeometry>
        </mxCell>
        <mxCell id="HZR0XLKzO5xrUFBaR0wA-189" value="&lt;span style=&quot;text-align: left;&quot;&gt;ГОСТ&lt;/span&gt;" style="ellipse;whiteSpace=wrap;html=1;fontStyle=4" vertex="1" parent="1">
          <mxGeometry x="-1113.49" y="90" width="94.33" height="40" as="geometry" />
        </mxCell>
        <mxCell id="HZR0XLKzO5xrUFBaR0wA-190" style="rounded=0;orthogonalLoop=1;jettySize=auto;html=1;exitX=1;exitY=0.5;exitDx=0;exitDy=0;entryX=0;entryY=0.5;entryDx=0;entryDy=0;endArrow=none;endFill=0;" edge="1" parent="1" source="HZR0XLKzO5xrUFBaR0wA-191" target="HZR0XLKzO5xrUFBaR0wA-101">
          <mxGeometry relative="1" as="geometry">
            <mxPoint x="-959.55" y="157.5" as="targetPoint" />
          </mxGeometry>
        </mxCell>
        <mxCell id="HZR0XLKzO5xrUFBaR0wA-191" value="&lt;div&gt;&lt;span style=&quot;text-align: left;&quot;&gt;Состояние по документам&lt;/span&gt;&lt;span style=&quot;text-align: left;&quot;&gt;&lt;br&gt;&lt;/span&gt;&lt;/div&gt;" style="ellipse;whiteSpace=wrap;html=1;verticalAlign=middle;spacingTop=0;" vertex="1" parent="1">
          <mxGeometry x="-1131.33" y="185" width="130" height="40" as="geometry" />
        </mxCell>
        <mxCell id="HZR0XLKzO5xrUFBaR0wA-194" value="&lt;span style=&quot;text-align: left;&quot;&gt;логистический запрпос&lt;/span&gt;" style="ellipse;whiteSpace=wrap;html=1;" vertex="1" parent="1">
          <mxGeometry x="-672.44" y="862.5" width="90" height="40" as="geometry" />
        </mxCell>
        <mxCell id="HZR0XLKzO5xrUFBaR0wA-196" style="edgeStyle=orthogonalEdgeStyle;rounded=0;orthogonalLoop=1;jettySize=auto;html=1;exitX=0.5;exitY=1;exitDx=0;exitDy=0;entryX=0.5;entryY=0;entryDx=0;entryDy=0;endArrow=none;endFill=0;" edge="1" parent="1" target="HZR0XLKzO5xrUFBaR0wA-197" source="HZR0XLKzO5xrUFBaR0wA-128">
          <mxGeometry relative="1" as="geometry">
            <mxPoint x="-709.1099999999999" y="692" as="sourcePoint" />
          </mxGeometry>
        </mxCell>
        <mxCell id="HZR0XLKzO5xrUFBaR0wA-197" value="&lt;span style=&quot;text-align: left;&quot;&gt;организационный&lt;/span&gt;&lt;div&gt;&lt;span style=&quot;text-align: left;&quot;&gt;запрпос&lt;/span&gt;&lt;/div&gt;" style="ellipse;whiteSpace=wrap;html=1;" vertex="1" parent="1">
          <mxGeometry x="-763.44" y="702.5" width="108.67" height="40" as="geometry" />
        </mxCell>
        <mxCell id="HZR0XLKzO5xrUFBaR0wA-199" style="edgeStyle=orthogonalEdgeStyle;rounded=0;orthogonalLoop=1;jettySize=auto;html=1;exitX=0.5;exitY=1;exitDx=0;exitDy=0;entryX=0.5;entryY=0;entryDx=0;entryDy=0;endArrow=none;endFill=0;" edge="1" parent="1" target="HZR0XLKzO5xrUFBaR0wA-200" source="HZR0XLKzO5xrUFBaR0wA-118">
          <mxGeometry relative="1" as="geometry">
            <mxPoint x="-690.44" y="492.5" as="sourcePoint" />
          </mxGeometry>
        </mxCell>
        <mxCell id="HZR0XLKzO5xrUFBaR0wA-200" value="&lt;span style=&quot;text-align: left;&quot;&gt;Инженерный запрпос&lt;/span&gt;" style="ellipse;whiteSpace=wrap;html=1;" vertex="1" parent="1">
          <mxGeometry x="-735.44" y="505" width="90" height="40" as="geometry" />
        </mxCell>
      </root>
    </mxGraphModel>
  </diagram>
</mxfile>
